<svg fill="none" height="31" viewBox="0 0 649 202" width="100" xmlns="http://www.w3.org/2000/svg"><path d="m613.075 51.7-18.04 58.08-20.9-58.3001c-1.1-2.86-3.08-4.3999-6.16-4.3999h-23.76c-3.96 0-5.72 2.6399-4.4 6.38l38.72 101.86-13.2 39.6c-1.32 3.96.66 6.16 4.62 6.16h23.76c3.08 0 5.5-1.32 6.38-4.4l47.52-143.44c1.32-3.96-.66-6.16-4.62-6.16h-23.76c-3.08 0-5.28 1.54-6.16 4.62z" fill="#e54f34"/><g fill="#000"><path d="m56.7751 160.16c29.48 0 54.1199-15.4 54.1199-46.2 0-33.88-29.9199-41.8-51.9199-49.5-12.76-4.62-21.78-9.02-21.78-18.26 0-6.38 5.06-11.88 16.06-11.88 10.12 0 15.84 3.74 17.6 11.88.66 3.52 2.42 5.28 5.72 5.28h24.1999c3.52 0 5.72-1.98 5.5-5.72-2.64-31.9-27.2799-45.76-53.0199-45.76-26.18 0-51.26 15.4-51.26 46.2 0 33.66 27.5 42.68 49.28 50.16 13.42 4.62 24.42 8.58 24.42 17.6 0 6.38-4.62 11.88-18.92 11.88-12.98 0-19.58-3.96-21.34-11.88-.66-3.52-2.42-5.28-5.72-5.28h-24.19999c-3.52001 0-5.720005 1.98-5.5000051 5.72 2.6399951 31.9 27.9399951 45.76 56.7599951 45.76z"/><path d="m193.158 44c-14.74 0-25.52 5.06-32.78 13.42v-4.84c0-3.52-1.98-5.5-5.5-5.5h-22c-3.52 0-5.5 1.98-5.5 5.5v143c0 3.52 1.98 5.5 5.5 5.5h22c3.52 0 5.5-1.98 5.5-5.5v-48.62c7.26 8.36 18.04 13.2 32.78 13.2 28.82 0 52.58-25.3 52.58-58.08s-23.76-58.08-52.58-58.08zm-6.6 84.92c-15.18 0-26.18-10.34-26.18-26.84s11-26.84 26.18-26.84 26.18 10.34 26.18 26.84-11 26.84-26.18 26.84z"/><path d="m317.248 160.16c32.34 0 58.3-25.3 58.3-58.08s-25.96-58.08-58.3-58.08-58.3 25.3-58.3 58.08 25.96 58.08 58.3 58.08zm0-32.12c-14.3 0-25.3-10.34-25.3-25.96s11-25.96 25.3-25.96 25.3 10.34 25.3 25.96-11 25.96-25.3 25.96z"/><path d="m450.094 45.32c-11 1.76-19.8 8.14-22.88 19.36v-12.1c0-3.52-1.98-5.5-5.5-5.5h-22c-3.52 0-5.5 1.98-5.5 5.5v99c0 3.52 1.98 5.5 5.5 5.5h22c3.52 0 5.5-1.98 5.5-5.5v-46.42c0-17.6 11.88-23.76 24.2-23.32 2.86 0 4.4-1.76 4.4-5.28v-25.96c0-3.52-1.98-5.94-5.72-5.28z"/><path d="m528.251 47.08h-12.1v-29.7c0-3.52-1.98-5.5-5.5-5.5h-22c-3.52 0-5.5 1.98-5.5 5.5v29.7h-12.1c-3.52 0-5.5 1.98-5.5 5.5v20.68c0 3.52 1.98 5.5 5.5 5.5h12.1v72.82c0 3.52 1.98 5.5 5.5 5.5h22c3.52 0 5.5-1.98 5.5-5.5v-72.82h12.1c3.52 0 5.5-1.98 5.5-5.5v-20.68c0-3.52-1.98-5.5-5.5-5.5z"/></g></svg>