<?xml version="1.0" encoding="UTF-8"?>
<svg width="619px" height="183px" viewBox="0 0 619 183" version="1.1" xmlns="http://www.w3.org/2000/svg" xmlns:xlink="http://www.w3.org/1999/xlink">
    <!-- Generator: Sketch 49.3 (51167) - http://www.bohemiancoding.com/sketch -->
    <title>Group 4</title>
    <desc>Created with Sketch.</desc>
    <defs></defs>
    <g id="Page-1" stroke="none" stroke-width="1" fill="none" fill-rule="evenodd">
        <g id="Group-4">
            <path d="M51.6137318,145.6 C25.4137318,145.6 2.41373176,133 0.0137317641,104 C-0.186268236,100.6 1.81373176,98.8 5.01373176,98.8 L27.0137318,98.8 C30.0137318,98.8 31.6137318,100.4 32.2137318,103.6 C33.8137318,110.8 39.8137318,114.4 51.6137318,114.4 C64.6137318,114.4 68.8137318,109.4 68.8137318,103.6 C68.8137318,95.4 58.8137318,91.8 46.6137318,87.6 C26.8137318,80.8 1.81373176,72.6 1.81373176,42 C1.81373176,14 24.6137318,0 48.4137318,0 C71.8137318,0 94.2137318,12.6 96.6137318,41.6 C96.8137318,45 94.8137318,46.8 91.6137318,46.8 L69.6137318,46.8 C66.6137318,46.8 65.0137318,45.2 64.4137318,42 C62.8137318,34.6 57.6137318,31.2 48.4137318,31.2 C38.4137318,31.2 33.8137318,36.2 33.8137318,42 C33.8137318,50.4 42.0137318,54.4 53.6137318,58.6 C73.6137318,65.6 100.813732,72.8 100.813732,103.6 C100.813732,131.6 78.4137318,145.6 51.6137318,145.6 Z M181.463732,40 C207.663732,40 229.263732,63 229.263732,92.8 C229.263732,122.6 207.663732,145.6 181.463732,145.6 C168.081731,145.6 158.351732,141.084 151.665734,133.460001 L151.665734,177.8 C151.665734,181 149.865734,182.8 146.665734,182.8 L126.665734,182.8 C123.465734,182.8 121.665734,181 121.665734,177.8 L121.665734,47.8 C121.665734,44.6 123.465734,42.8 126.665734,42.8 L146.665734,42.8 C149.865734,42.8 151.665734,44.6 151.665734,47.8 L151.665734,52.1399994 C158.351732,44.5160004 168.081731,40 181.463732,40 Z M175.463732,117.2 C189.263732,117.2 199.263732,107.8 199.263732,92.8 C199.263732,77.8 189.263732,68.4 175.463732,68.4 C161.663732,68.4 151.663732,77.8 151.663732,92.8 C151.663732,107.8 161.663732,117.2 175.463732,117.2 Z M300.113732,145.6 C270.713732,145.6 247.113732,122.6 247.113732,92.8 C247.113732,63 270.713732,40 300.113732,40 C329.513732,40 353.113732,63 353.113732,92.8 C353.113732,122.6 329.513732,145.6 300.113732,145.6 Z M300.113732,116.4 C313.113732,116.4 323.113732,107 323.113732,92.8 C323.113732,78.6 313.113732,69.2 300.113732,69.2 C287.113732,69.2 277.113732,78.6 277.113732,92.8 C277.113732,107 287.113732,116.4 300.113732,116.4 Z M426.763732,41.2 L426.763735,41.197998 C430.163735,40.597998 431.963735,42.797998 431.963735,45.997998 L431.963735,69.597998 C431.963735,72.797998 430.563735,74.397998 427.963735,74.397998 C416.763735,73.997998 405.963735,79.597998 405.963735,95.597998 L405.963735,137.797998 C405.963735,140.997998 404.163735,142.797998 400.963735,142.797998 L380.963735,142.797998 C377.763735,142.797998 375.963735,140.997998 375.963735,137.797998 L375.963735,47.797998 C375.963735,44.597998 377.763735,42.797998 380.963735,42.797998 L400.963735,42.797998 C404.163735,42.797998 405.963735,44.597998 405.963735,47.797998 L405.963735,58.6079987 C408.947734,48.5679993 416.827733,42.6899994 426.763732,41.2 Z M503.813732,42.8 C507.013732,42.8 508.813732,44.6 508.813732,47.8 L508.813732,66.6 C508.813732,69.8 507.013732,71.6 503.813732,71.6 L492.813732,71.6 L492.813732,137.8 C492.813732,141 491.013732,142.8 487.813732,142.8 L467.813732,142.8 C464.613732,142.8 462.813732,141 462.813732,137.8 L462.813732,71.6 L451.813732,71.6 C448.613732,71.6 446.813732,69.8 446.813732,66.6 L446.813732,47.8 C446.813732,44.6 448.613732,42.8 451.813732,42.8 L462.813732,42.8 L462.813732,15.8 C462.813732,12.6 464.613732,10.8 467.813732,10.8 L487.813732,10.8 C491.013732,10.8 492.813732,12.6 492.813732,15.8 L492.813732,42.8 L503.813732,42.8 Z" id="Sporty" fill="#FFFFFF"></path>
            <path d="M586.463732,47 C587.263732,44.2 589.263732,42.8 592.063732,42.8 L613.663732,42.8 C617.263732,42.8 619.063732,44.8 617.863732,48.4 L574.663732,178.8 C573.863732,181.6 571.663732,182.8 568.863732,182.8 L547.263732,182.8 C543.663732,182.8 541.863732,180.8 543.063732,177.2 L555.063732,141.2 L519.863732,48.6 C518.663732,45.2 520.263732,42.8 523.863732,42.8 L545.463732,42.8 C548.263732,42.8 550.063732,44.2 551.063732,46.8 L570.063732,99.8 L586.463732,47 Z" id="Path" fill="#E54F34"></path>
        </g>
    </g>
</svg>